<svg width="10" height="18"  fill="none" xmlns="http://www.w3.org/2000/svg">
<symbol id="whiteright"  viewBox="0 0 5 9">
<path d="M4.64844 4.5C4.64844 4.4375 4.61719 4.36719 4.57031 4.32031L0.929688 0.679687C0.882813 0.632812 0.8125 0.601562 0.75 0.601562C0.6875 0.601562 0.617188 0.632812 0.570313 0.679687L0.179688 1.07031C0.132813 1.11719 0.101563 1.1875 0.101563 1.25C0.101563 1.3125 0.132813 1.38281 0.179688 1.42969L3.25 4.5L0.179688 7.57031C0.132813 7.61719 0.101563 7.6875 0.101563 7.75C0.101563 7.82031 0.132813 7.88281 0.179688 7.92969L0.570313 8.32031C0.617188 8.36719 0.6875 8.39844 0.75 8.39844C0.8125 8.39844 0.882813 8.36719 0.929688 8.32031L4.57031 4.67969C4.61719 4.63281 4.64844 4.5625 4.64844 4.5Z" fill=""/>
</symbol>

<symbol id="whiteleft"  viewBox="0 0 5 9">

<path d="M4.89844 1.25C4.89844 1.17969 4.86719 1.11719 4.82031 1.07031L4.42969 0.679687C4.38281 0.632812 4.3125 0.601562 4.25 0.601562C4.1875 0.601562 4.11719 0.632812 4.07031 0.679687L0.429688 4.32031C0.382813 4.36719 0.351563 4.4375 0.351563 4.5C0.351563 4.5625 0.382813 4.63281 0.429688 4.67969L4.07031 8.32031C4.11719 8.36719 4.1875 8.39844 4.25 8.39844C4.3125 8.39844 4.38281 8.36719 4.42969 8.32031L4.82031 7.92969C4.86719 7.88281 4.89844 7.8125 4.89844 7.75C4.89844 7.6875 4.86719 7.61719 4.82031 7.57031L1.75 4.5L4.82031 1.42969C4.86719 1.38281 4.89844 1.3125 4.89844 1.25Z" fill=""/>
</symbol>

<symbol id="facebook"  viewBox="0 0 10 16">

<path d="M8.71875 9H6.375V16H3.25V9H0.71875V6.09375H3.25V3.90625C3.25 3.07292 3.40625 2.36458 3.71875 1.78125C4.03125 1.19792 4.46875 0.760417 5.03125 0.46875C5.61458 0.15625 6.28125 0 7.03125 0C7.36458 0 7.71875 0.0208333 8.09375 0.0625C8.46875 0.0833333 8.76042 0.114583 8.96875 0.15625L9.28125 0.1875V2.65625H8.03125C7.44792 2.65625 7.02083 2.8125 6.75 3.125C6.5 3.41667 6.375 3.78125 6.375 4.21875V6.09375H9.15625L8.71875 9Z" fill=""/>
</symbol>

<symbol id="twitter"  viewBox="0 0 32 32">
<path d="M28.7106 9.48225C28.7309 9.7665 28.7309 10.0508 28.7309 10.3351C28.7309 19.0051 22.132 28.9949 10.0711 28.9949C6.35531 28.9949 2.90356 27.9188 0 26.0508C0.527937 26.1117 1.0355 26.132 1.58375 26.132C4.64969 26.132 7.47206 25.0965 9.72587 23.33C6.84262 23.2691 4.42637 21.3808 3.59387 18.7818C4 18.8426 4.40606 18.8833 4.8325 18.8833C5.42131 18.8833 6.01019 18.802 6.55837 18.6599C3.55331 18.0508 1.29944 15.4112 1.29944 12.2234V12.1422C2.1725 12.6295 3.18781 12.9341 4.26388 12.9746C2.49738 11.7969 1.34006 9.78681 1.34006 7.51269C1.34006 6.29444 1.66488 5.17769 2.23344 4.20306C5.46187 8.18275 10.3147 10.7817 15.7563 11.066C15.6548 10.5787 15.5938 10.0711 15.5938 9.5635C15.5938 5.94925 18.5177 3.00513 22.1522 3.00513C24.0405 3.00513 25.7461 3.797 26.9441 5.07619C28.4263 4.79194 29.8476 4.24369 31.1065 3.49244C30.6191 5.01531 29.5836 6.2945 28.2232 7.10663C29.5431 6.96456 30.8222 6.599 31.9999 6.09144C31.1066 7.39088 29.9898 8.54819 28.7106 9.48225Z" fill=""/>
</symbol>

<symbol id="shewron-down"  viewBox="0 0 14 16">
<path d="M6.46966 11.9212L0.396437 5.84793C0.103531 5.55502 0.103531 5.08014 0.396437 4.78727L1.10478 4.07893C1.39719 3.78652 1.87109 3.78596 2.16419 4.07768L7 8.89083L11.8358 4.07768C12.1289 3.78596 12.6028 3.78652 12.8952 4.07893L13.6035 4.78727C13.8964 5.08018 13.8964 5.55505 13.6035 5.84793L7.53034 11.9212C7.23744 12.2141 6.76256 12.2141 6.46966 11.9212Z" fill=""/>
</symbol>

<symbol id="circle"  viewBox="0 0 40 40">
<circle opacity="0.4" cx="20" cy="20" r="19.5" stroke="" fill=""/>
</symbol>

<symbol id="arrowright"  viewBox="0 0 5 9">
<path d="M4.64844 4.5C4.64844 4.4375 4.61719 4.36719 4.57031 4.32031L0.929688 0.679687C0.882813 0.632812 0.8125 0.601562 0.75 0.601562C0.6875 0.601562 0.617188 0.632812 0.570313 0.679687L0.179688 1.07031C0.132813 1.11719 0.101563 1.1875 0.101563 1.25C0.101563 1.3125 0.132813 1.38281 0.179688 1.42969L3.25 4.5L0.179688 7.57031C0.132813 7.61719 0.101563 7.6875 0.101563 7.75C0.101563 7.82031 0.132813 7.88281 0.179688 7.92969L0.570313 8.32031C0.617188 8.36719 0.6875 8.39844 0.75 8.39844C0.8125 8.39844 0.882813 8.36719 0.929688 8.32031L4.57031 4.67969C4.61719 4.63281 4.64844 4.5625 4.64844 4.5Z" fill=""/>
</symbol>


<symbol id="arrowleft"  viewBox="0 0 5 9">
<path d="M4.89844 1.25C4.89844 1.17969 4.86719 1.11719 4.82031 1.07031L4.42969 0.679687C4.38281 0.632812 4.3125 0.601562 4.25 0.601562C4.1875 0.601562 4.11719 0.632812 4.07031 0.679687L0.429688 4.32031C0.382813 4.36719 0.351563 4.4375 0.351563 4.5C0.351563 4.5625 0.382813 4.63281 0.429688 4.67969L4.07031 8.32031C4.11719 8.36719 4.1875 8.39844 4.25 8.39844C4.3125 8.39844 4.38281 8.36719 4.42969 8.32031L4.82031 7.92969C4.86719 7.88281 4.89844 7.8125 4.89844 7.75C4.89844 7.6875 4.86719 7.61719 4.82031 7.57031L1.75 4.5L4.82031 1.42969C4.86719 1.38281 4.89844 1.3125 4.89844 1.25Z" fill="white"/>
</symbol>




<symbol id="insta"  viewBox="0 0 15 14">

<path d="M4.46875 4.46875C5.17708 3.76042 6.03125 3.40625 7.03125 3.40625C8.03125 3.40625 8.875 3.76042 9.5625 4.46875C10.2708 5.15625 10.625 6 10.625 7C10.625 8 10.2708 8.85417 9.5625 9.5625C8.875 10.25 8.03125 10.5938 7.03125 10.5938C6.03125 10.5938 5.17708 10.25 4.46875 9.5625C3.78125 8.85417 3.4375 8 3.4375 7C3.4375 6 3.78125 5.15625 4.46875 4.46875ZM5.375 8.65625C5.83333 9.11458 6.38542 9.34375 7.03125 9.34375C7.67708 9.34375 8.22917 9.11458 8.6875 8.65625C9.14583 8.19792 9.375 7.64583 9.375 7C9.375 6.35417 9.14583 5.80208 8.6875 5.34375C8.22917 4.88542 7.67708 4.65625 7.03125 4.65625C6.38542 4.65625 5.83333 4.88542 5.375 5.34375C4.91667 5.80208 4.6875 6.35417 4.6875 7C4.6875 7.64583 4.91667 8.19792 5.375 8.65625ZM11.3438 2.6875C11.5104 2.83333 11.5938 3.02083 11.5938 3.25C11.5938 3.47917 11.5104 3.67708 11.3438 3.84375C11.1979 4.01042 11.0104 4.09375 10.7812 4.09375C10.5521 4.09375 10.3542 4.01042 10.1875 3.84375C10.0208 3.67708 9.9375 3.47917 9.9375 3.25C9.9375 3.02083 10.0208 2.83333 10.1875 2.6875C10.3542 2.52083 10.5521 2.4375 10.7812 2.4375C11.0104 2.4375 11.1979 2.52083 11.3438 2.6875ZM14 4.125C14.0208 4.6875 14.0312 5.64583 14.0312 7C14.0312 8.35417 14.0208 9.3125 14 9.875C13.9375 11.1458 13.5521 12.1354 12.8438 12.8438C12.1562 13.5312 11.1771 13.8958 9.90625 13.9375C9.34375 13.9792 8.38542 14 7.03125 14C5.67708 14 4.71875 13.9792 4.15625 13.9375C2.88542 13.875 1.90625 13.5 1.21875 12.8125C0.947917 12.5625 0.729167 12.2708 0.5625 11.9375C0.395833 11.6042 0.270833 11.2812 0.1875 10.9688C0.125 10.6562 0.09375 10.2917 0.09375 9.875C0.0520833 9.3125 0.03125 8.35417 0.03125 7C0.03125 5.64583 0.0520833 4.67708 0.09375 4.09375C0.15625 2.84375 0.53125 1.875 1.21875 1.1875C1.90625 0.479167 2.88542 0.09375 4.15625 0.03125C4.71875 0.0104167 5.67708 0 7.03125 0C8.38542 0 9.34375 0.0104167 9.90625 0.03125C11.1771 0.09375 12.1562 0.479167 12.8438 1.1875C13.5521 1.875 13.9375 2.85417 14 4.125ZM12.5 11.125C12.5625 10.9583 12.6146 10.75 12.6562 10.5C12.6979 10.2292 12.7292 9.91667 12.75 9.5625C12.7708 9.1875 12.7812 8.88542 12.7812 8.65625C12.7812 8.42708 12.7812 8.10417 12.7812 7.6875C12.7812 7.27083 12.7812 7.04167 12.7812 7C12.7812 6.9375 12.7812 6.70833 12.7812 6.3125C12.7812 5.89583 12.7812 5.57292 12.7812 5.34375C12.7812 5.11458 12.7708 4.82292 12.75 4.46875C12.7292 4.09375 12.6979 3.78125 12.6562 3.53125C12.6146 3.26042 12.5625 3.04167 12.5 2.875C12.25 2.22917 11.8021 1.78125 11.1562 1.53125C10.9896 1.46875 10.7708 1.41667 10.5 1.375C10.25 1.33333 9.9375 1.30208 9.5625 1.28125C9.20833 1.26042 8.91667 1.25 8.6875 1.25C8.47917 1.25 8.15625 1.25 7.71875 1.25C7.30208 1.25 7.07292 1.25 7.03125 1.25C6.98958 1.25 6.76042 1.25 6.34375 1.25C5.92708 1.25 5.60417 1.25 5.375 1.25C5.14583 1.25 4.84375 1.26042 4.46875 1.28125C4.11458 1.30208 3.80208 1.33333 3.53125 1.375C3.28125 1.41667 3.07292 1.46875 2.90625 1.53125C2.26042 1.78125 1.8125 2.22917 1.5625 2.875C1.5 3.04167 1.44792 3.26042 1.40625 3.53125C1.36458 3.78125 1.33333 4.09375 1.3125 4.46875C1.29167 4.82292 1.28125 5.11458 1.28125 5.34375C1.28125 5.55208 1.28125 5.875 1.28125 6.3125C1.28125 6.72917 1.28125 6.95833 1.28125 7C1.28125 7.08333 1.28125 7.28125 1.28125 7.59375C1.28125 7.88542 1.28125 8.13542 1.28125 8.34375C1.28125 8.53125 1.28125 8.78125 1.28125 9.09375C1.30208 9.40625 1.32292 9.67708 1.34375 9.90625C1.36458 10.1146 1.39583 10.3333 1.4375 10.5625C1.47917 10.7917 1.52083 10.9792 1.5625 11.125C1.83333 11.7708 2.28125 12.2188 2.90625 12.4688C3.07292 12.5312 3.28125 12.5833 3.53125 12.625C3.80208 12.6667 4.11458 12.6979 4.46875 12.7188C4.84375 12.7396 5.13542 12.75 5.34375 12.75C5.57292 12.75 5.89583 12.75 6.3125 12.75C6.75 12.75 6.98958 12.75 7.03125 12.75C7.09375 12.75 7.32292 12.75 7.71875 12.75C8.13542 12.75 8.45833 12.75 8.6875 12.75C8.91667 12.75 9.20833 12.7396 9.5625 12.7188C9.9375 12.6979 10.25 12.6667 10.5 12.625C10.7708 12.5833 10.9896 12.5312 11.1562 12.4688C11.8021 12.1979 12.25 11.75 12.5 11.125Z" fill=""/>
</symbol>
</svg>

<svg>
        <use xlink:href="sprite.svg#pinterest">

        </use>
    </svg>
