<svg width="14" height="16"  fill="none" xmlns="http://www.w3.org/2000/svg">
<symbol id="shewron-down"  viewBox="0 0 14 16">
<path d="M6.46966 11.9212L0.396437 5.84793C0.103531 5.55502 0.103531 5.08014 0.396437 4.78727L1.10478 4.07893C1.39719 3.78652 1.87109 3.78596 2.16419 4.07768L7 8.89083L11.8358 4.07768C12.1289 3.78596 12.6028 3.78652 12.8952 4.07893L13.6035 4.78727C13.8964 5.08018 13.8964 5.55505 13.6035 5.84793L7.53034 11.9212C7.23744 12.2141 6.76256 12.2141 6.46966 11.9212Z" fill="white"/>
</symbol>
 
<symbol id="quote"  viewBox="0 0 20 20">
<path d="M18.125 10H15V7.5C15 6.12109 16.1211 5 17.5 5H17.8125C18.332 5 18.75 4.58203 18.75 4.0625V2.1875C18.75 1.66797 18.332 1.25 17.8125 1.25H17.5C14.0469 1.25 11.25 4.04688 11.25 7.5V16.875C11.25 17.9102 12.0898 18.75 13.125 18.75H18.125C19.1602 18.75 20 17.9102 20 16.875V11.875C20 10.8398 19.1602 10 18.125 10ZM6.875 10H3.75V7.5C3.75 6.12109 4.87109 5 6.25 5H6.5625C7.08203 5 7.5 4.58203 7.5 4.0625V2.1875C7.5 1.66797 7.08203 1.25 6.5625 1.25H6.25C2.79688 1.25 0 4.04688 0 7.5V16.875C0 17.9102 0.839844 18.75 1.875 18.75H6.875C7.91016 18.75 8.75 17.9102 8.75 16.875V11.875C8.75 10.8398 7.91016 10 6.875 10Z" fill="#5373FD"/>
</symbol>

 </svg>
 
